<svg width="16" height="16" viewBox="0 0 16 16" fill="none" xmlns="http://www.w3.org/2000/svg">
<g clip-path="url(#clip0_559_22152)">
<path d="M5.76199 2.09673L4.62544 2.62209C2.87515 3.43113 2 3.83565 2 4.49967C2 5.16369 2.87515 5.56821 4.62545 6.37726L5.76199 6.90261C6.86347 7.41174 7.41427 7.66634 8 7.66634C8.58573 7.66634 9.13653 7.41174 10.238 6.90261L11.3745 6.37726C13.1249 5.56821 14 5.16369 14 4.49967C14 3.83565 13.1249 3.43113 11.3745 2.62209L10.238 2.09673C9.13653 1.58758 8.58573 1.33301 8 1.33301C7.41427 1.33301 6.86347 1.58758 5.76199 2.09673Z" stroke="#2582FF" stroke-width="1.25" stroke-linecap="round" stroke-linejoin="round"/>
<path d="M13.8587 7.39844C13.9529 7.5309 14 7.66904 14 7.8209C14 8.47544 13.1249 8.87424 11.3745 9.67177L10.238 10.1896C9.13653 10.6915 8.58573 10.9425 8 10.9425C7.41427 10.9425 6.86347 10.6915 5.76199 10.1896L4.62545 9.67177C2.87515 8.87424 2 8.47544 2 7.8209C2 7.66904 2.04711 7.5309 2.14133 7.39844" stroke="#2582FF" stroke-width="1.25" stroke-linecap="round" stroke-linejoin="round"/>
<path d="M13.5845 10.8438C13.8615 11.0644 14 11.2844 14 11.5448C14 12.1994 13.1249 12.5981 11.3745 13.3956L10.238 13.9135C9.13653 14.4154 8.58573 14.6664 8 14.6664C7.41427 14.6664 6.86347 14.4154 5.76199 13.9135L4.62545 13.3956C2.87515 12.5981 2 12.1994 2 11.5448C2 11.2844 2.13852 11.0644 2.41556 10.8438" stroke="#2582FF" stroke-width="1.25" stroke-linecap="round" stroke-linejoin="round"/>
</g>
<defs>
<clipPath id="clip0_559_22152">
<rect width="16" height="16" fill="white"/>
</clipPath>
</defs>
</svg>
