<svg width="20" height="20" viewBox="0 0 20 20" fill="none" xmlns="http://www.w3.org/2000/svg">
<path d="M5.26092 18.8721C6.07946 18.9577 8.21514 18.9577 9.49939 18.9577C9.94922 18.9577 10.3138 18.5931 10.3138 18.1433C10.3138 17.6936 9.94922 17.3289 9.49939 17.3289C8.15888 17.3289 6.15368 17.3278 5.42914 17.2521C4.71754 17.1776 4.31426 17.0386 4.01607 16.8277C3.81486 16.6855 3.63788 16.5179 3.48972 16.3309C3.27674 16.0621 3.13554 15.7015 3.05869 15.0459C2.97958 14.3711 2.97826 13.49 2.97826 12.2204L2.97819 9.80355C2.97818 9.58105 2.97832 9.04897 3.21217 8.65547C3.35628 8.41297 3.54079 8.21039 3.73034 8.1072C4.03576 7.94094 4.38592 7.84647 4.75814 7.84647L5.62512 7.87688C5.94186 7.88345 6.31148 7.87344 6.66827 7.77784C7.36324 7.59163 7.90609 7.04879 8.0923 6.35381C8.1879 5.99702 8.19791 5.6274 8.19134 5.31066L8.16093 4.44369C8.16093 4.05394 8.26458 3.71467 8.44572 3.39933C8.5513 3.2155 8.73522 3.04726 8.98922 2.8995C9.3743 2.67541 9.83547 2.67334 10.1173 2.67207C10.3991 2.67079 10.6964 2.66982 10.9448 2.66982C12.4732 2.66982 13.0291 2.68144 13.4486 2.82924C14.1758 3.08545 14.7306 3.62015 14.989 4.27463C15.0536 4.43849 15.0994 4.65384 15.1239 5.02714C15.1489 5.40769 15.1493 5.89349 15.1493 6.5937V7.52128C15.1493 7.9694 15.5126 8.33269 15.9607 8.33269C16.4089 8.33269 16.7721 7.9694 16.7721 7.52128V6.56605C16.7721 5.90009 16.7721 5.36045 16.7432 4.91997C16.7134 4.46611 16.6504 4.06139 16.4976 3.67459C16.057 2.55849 15.1333 1.6966 13.9861 1.29244C13.2705 1.04028 12.0437 1.0406 10.7479 1.04105C8.38155 1.04075 6.97601 1.04058 5.82398 1.44648C3.97398 2.09829 2.49587 3.48391 1.79304 5.26396C1.55878 5.85726 1.455 6.49452 1.40479 7.25855C1.35547 8.00914 1.35547 8.9363 1.35547 10.1182V12.2711C1.35545 13.4779 1.35544 14.4551 1.44701 15.2362C1.5421 16.0474 1.74481 16.7456 2.21967 17.3448C2.46565 17.6552 2.75611 17.9292 3.08142 18.1593C3.70205 18.5981 4.41974 18.7841 5.26092 18.8721Z" fill="#141B34"/>
<path fill-rule="evenodd" clip-rule="evenodd" d="M14.0892 9.16795C14.4316 9.14462 14.7532 9.33362 14.8996 9.64404L16.2263 12.458C16.3566 12.7347 16.4292 12.8864 16.4921 12.9912C16.5043 13.0115 16.5141 13.0265 16.5216 13.0374C16.5305 13.0388 16.5416 13.0403 16.5552 13.0418C16.6649 13.0538 16.8184 13.055 17.1123 13.055H17.8125C18.2728 13.055 18.6458 13.428 18.6458 13.8883C18.6458 14.3485 18.2728 14.7216 17.8125 14.7216H17.1123C17.1011 14.7216 17.0898 14.7216 17.0787 14.7216C16.8323 14.7216 16.5852 14.7217 16.3735 14.6985C16.1305 14.6719 15.865 14.6092 15.6069 14.44C15.352 14.2729 15.1874 14.0561 15.0629 13.8486C14.9518 13.6634 14.8438 13.4342 14.7325 13.1981C14.7279 13.1884 14.7233 13.1785 14.7187 13.1688L14.3014 12.2837L13.1075 16.0825C13.0046 16.41 12.7115 16.6408 12.3692 16.6641C12.0268 16.6875 11.7051 16.4985 11.5587 16.188L10.2321 13.374C10.1017 13.0975 10.0292 12.9458 9.96625 12.8409C9.95408 12.8206 9.94425 12.8056 9.93675 12.7947C9.92783 12.7933 9.91675 12.7919 9.90317 12.7904C9.79342 12.7783 9.63992 12.7771 9.34608 12.7771H8.64583C8.1856 12.7771 7.8125 12.404 7.8125 11.9438C7.8125 11.4836 8.1856 11.1105 8.64583 11.1105H9.34608C9.35725 11.1105 9.3685 11.1105 9.37967 11.1105C9.62608 11.1105 9.87308 11.1104 10.0848 11.1336C10.3278 11.1603 10.5933 11.2229 10.8514 11.392C11.1063 11.5592 11.2709 11.776 11.3954 11.9835C11.5066 12.1687 11.6146 12.3979 11.7258 12.634C11.7304 12.6437 11.735 12.6535 11.7397 12.6634L12.1569 13.5484L13.3508 9.74954C13.4538 9.42212 13.7468 9.19129 14.0892 9.16795Z" fill="#141B34"/>
</svg>
