<svg width="121" height="120" viewBox="0 0 121 120" fill="none" xmlns="http://www.w3.org/2000/svg">
<path d="M66.625 117.409C66.9754 117.324 67.3045 117.186 67.6125 117.016L68.8549 116.305L66.625 117.409Z" stroke="#2582FF" stroke-linecap="round" stroke-linejoin="round"/>
<path d="M86.7511 69.3095C86.3263 67.8865 85.721 66.5166 84.9458 65.1786L74.8042 47.6777L67.6147 35.2741C67.2218 34.5945 66.7971 33.9573 66.3405 33.3414C65.8945 32.7467 65.4271 32.1945 64.9174 31.6635C63.8979 30.5803 62.8253 29.7202 61.6997 29.0724L36.9668 14.7892C36.096 14.2901 35.2466 13.9502 34.4395 13.7803C34.2059 13.7272 33.9724 13.6848 33.7493 13.6635C32.7193 13.5573 31.8272 13.7272 31.052 14.1626L13.721 24.0494C12.9457 24.4848 12.3405 25.175 11.9157 26.0989C11.5015 27.0334 11.2891 28.1379 11.2891 29.4334V57.8193C11.2891 59.1042 11.5015 60.4635 11.9157 61.8759C12.3405 63.2989 12.9457 64.6688 13.721 66.0069L31.052 95.9113C31.8272 97.2387 32.7193 98.4494 33.7493 99.5219C34.7688 100.594 35.8412 101.465 36.9668 102.113L61.6997 116.385C62.8253 117.044 63.8979 117.415 64.9174 117.522C65.5333 117.585 66.0963 117.553 66.6166 117.415H66.6272L68.8572 116.311L68.9422 116.258L84.9458 107.136C85.1263 107.029 85.2963 106.923 85.4555 106.785C85.9865 106.36 86.4219 105.798 86.7511 105.076C87.1653 104.152 87.3777 103.037 87.3777 101.752V73.3662C87.3777 72.0812 87.1653 70.7219 86.7511 69.3095ZM52.3441 90.1874C51.5371 90.6547 50.5281 90.5379 49.3281 89.8476C48.1387 89.1573 47.1298 88.1166 46.3227 86.7148C45.5156 85.3131 45.1016 83.9325 45.1016 82.552C45.1016 81.1715 45.5156 80.2582 46.3227 79.8016C47.1192 79.3343 48.1174 79.4511 49.2961 80.1202C49.3068 80.1308 49.3175 80.1308 49.3281 80.1414C50.5281 80.8317 51.5371 81.883 52.3441 83.2741C53.1087 84.591 53.5121 85.9078 53.5546 87.2033C53.5652 87.2777 53.5653 87.3626 53.5653 87.437C53.5653 88.8069 53.1512 89.7308 52.3441 90.1874ZM53.5653 68.0352C53.5653 69.4051 53.1512 70.329 52.3441 70.7856C51.5371 71.2529 50.5281 71.1361 49.3281 70.4458C48.1387 69.7556 47.1298 68.7042 46.3227 67.3131C45.5156 65.9113 45.1016 64.5308 45.1016 63.1502V43.7485C45.1016 42.3679 45.5156 41.4547 46.3227 40.9874C47.1298 40.5308 48.1387 40.6476 49.3281 41.3379C50.5281 42.0281 51.5371 43.0688 52.3441 44.4706C53.1512 45.8724 53.5653 47.2529 53.5653 48.6334V68.0352Z" stroke="#2582FF" stroke-linecap="round" stroke-linejoin="round"/>
<path d="M52.3441 44.4668C51.5371 43.0651 50.5281 42.0244 49.3281 41.3341C48.1387 40.6438 47.1298 40.527 46.3227 40.9837C45.5156 41.4509 45.1016 42.3642 45.1016 43.7447V63.1465C45.1016 64.527 45.5156 65.9075 46.3227 67.3093C47.1298 68.7005 48.1387 69.7518 49.3281 70.4421C50.5281 71.1323 51.5371 71.2491 52.3441 70.7819C53.1512 70.3252 53.5653 69.4014 53.5653 68.0314V48.6297C53.5653 47.2491 53.1512 45.8686 52.3441 44.4668Z" stroke="#2582FF" stroke-linecap="round" stroke-linejoin="round"/>
<path d="M53.5653 87.4334C53.5653 88.8034 53.1512 89.7273 52.3441 90.1839C51.5371 90.6511 50.5281 90.5343 49.3281 89.8441C48.1387 89.1538 47.1298 88.1131 46.3227 86.7113C45.5156 85.3096 45.1016 83.929 45.1016 82.5485C45.1016 81.168 45.5156 80.2547 46.3227 79.7981C47.1192 79.3308 48.1175 79.4476 49.2963 80.1166C49.3069 80.1273 49.3175 80.1273 49.3281 80.1379C50.5281 80.8281 51.5371 81.8795 52.3441 83.2706C53.1087 84.5874 53.5122 85.9042 53.5547 87.1998C53.5653 87.2742 53.5653 87.3591 53.5653 87.4334Z" stroke="#2582FF" stroke-linecap="round" stroke-linejoin="round"/>
<path d="M108.615 62.7412V91.127C108.615 92.412 108.403 93.527 107.989 94.4509C107.564 95.3854 106.959 96.0651 106.184 96.5111L88.8524 106.397L68.9409 116.252L84.9446 107.13C85.1251 107.024 85.2949 106.918 85.4542 106.78C85.9852 106.355 86.4206 105.793 86.7498 105.07C87.1639 104.146 87.3764 103.031 87.3764 101.746V73.3606C87.3764 72.0757 87.1639 70.7164 86.7498 69.304C86.325 67.881 85.7198 66.5111 84.9446 65.173L74.8029 47.6722L67.6135 35.2686C67.2206 34.589 66.7958 33.9518 66.3392 33.3359C65.8932 32.7412 65.4259 32.189 64.9162 31.658C63.8967 30.5748 62.824 29.7146 61.6984 29.0669L36.9656 14.7837C36.0948 14.2846 35.2454 13.9447 34.4383 13.7748C34.2047 13.7217 33.9711 13.6792 33.7481 13.658C32.718 13.5518 31.826 13.7217 31.0508 14.1571L52.2897 3.53761C53.0649 3.10221 53.957 2.93233 54.9871 3.03852C56.0065 3.14472 57.0789 3.5164 58.2046 4.16419L82.9373 18.4474C84.063 19.0952 85.1356 19.9553 86.1551 21.0385C87.1852 22.1111 88.0772 23.3217 88.8524 24.6492L106.184 54.5536C106.959 55.8916 107.564 57.2615 107.989 58.6846C108.403 60.0969 108.615 61.4562 108.615 62.7412Z" fill="#E6F1FF" stroke="#2582FF" stroke-linecap="round" stroke-linejoin="round"/>
</svg>
