<svg width="17" height="16" viewBox="0 0 17 16" fill="none" xmlns="http://www.w3.org/2000/svg">
<path d="M10.5003 3.33325H9.16699C7.28137 3.33325 6.33857 3.33325 5.75278 3.91904C5.16699 4.50483 5.16699 5.44763 5.16699 7.33325V10.6666C5.16699 12.5522 5.16699 13.495 5.75278 14.0808C6.33857 14.6666 7.28137 14.6666 9.16699 14.6666H10.0624C10.6074 14.6666 10.8799 14.6666 11.1249 14.5651C11.37 14.4636 11.5627 14.2709 11.9481 13.8855L13.7193 12.1143C14.1047 11.7289 14.2973 11.5363 14.3989 11.2912C14.5003 11.0462 14.5003 10.7737 14.5003 10.2287V7.33325C14.5003 5.44763 14.5003 4.50483 13.9145 3.91904C13.3287 3.33325 12.3859 3.33325 10.5003 3.33325Z" stroke="#1F2937" stroke-width="1.25" stroke-linecap="round" stroke-linejoin="round"/>
<path d="M10.8335 14.3333V13.6667C10.8335 12.4096 10.8335 11.7811 11.224 11.3905C11.6146 11 12.2431 11 13.5002 11H14.1668" stroke="#1F2937" stroke-width="1.25" stroke-linecap="round" stroke-linejoin="round"/>
<path d="M5.16699 12.6666C4.06243 12.6666 3.16699 11.7712 3.16699 10.6666V5.33325C3.16699 3.44763 3.16699 2.50483 3.75278 1.91904C4.33857 1.33325 5.28137 1.33325 7.16699 1.33325H10.5006C11.6051 1.33326 12.5006 2.22871 12.5006 3.33327" stroke="#1F2937" stroke-width="1.25" stroke-linecap="round" stroke-linejoin="round"/>
<path d="M7.50098 8.66667H10.1676M7.50098 6H12.1676" stroke="#1F2937" stroke-width="1.25" stroke-linecap="round" stroke-linejoin="round"/>
</svg>
