<svg width="16" height="16" viewBox="0 0 16 16" fill="none" xmlns="http://www.w3.org/2000/svg">
<path d="M2.66699 4.6665V13.9998" stroke="#0F172A" stroke-width="1.25" stroke-linecap="round" stroke-linejoin="round"/>
<path d="M7.83873 2.60577C5.63523 1.48331 3.90116 2.14096 3.0365 2.8128C2.88065 2.9339 2.80271 2.99445 2.73485 3.13311C2.66699 3.27178 2.66699 3.40092 2.66699 3.6592V9.82127C3.31346 9.08947 5.25285 7.9552 7.83873 9.2724C10.1497 10.4496 12.1164 9.9616 13.0468 9.453C13.1759 9.38247 13.2404 9.34713 13.2871 9.26853C13.3337 9.18993 13.3337 9.1046 13.3337 8.93393V3.91593C13.3337 3.36359 13.3337 3.08742 13.2021 2.98737C13.0705 2.88733 12.7627 2.97267 12.1471 3.14336C11.0937 3.43546 9.56186 3.48355 7.83873 2.60577Z" stroke="#1F2937" stroke-width="1.25" stroke-linecap="round" stroke-linejoin="round"/>
</svg>
