<svg width="17" height="16" viewBox="0 0 17 16" fill="none" xmlns="http://www.w3.org/2000/svg">
<path d="M2.1665 8.00008C2.1665 5.01452 2.1665 3.52174 3.094 2.59424C4.0215 1.66675 5.51428 1.66675 8.49984 1.66675C11.4854 1.66675 12.9782 1.66675 13.9057 2.59424C14.8332 3.52174 14.8332 5.01452 14.8332 8.00008C14.8332 10.9856 14.8332 12.4784 13.9057 13.4059C12.9782 14.3334 11.4854 14.3334 8.49984 14.3334C5.51428 14.3334 4.0215 14.3334 3.094 13.4059C2.1665 12.4784 2.1665 10.9856 2.1665 8.00008Z" stroke="#1F2937" stroke-width="1.25"/>
<path d="M7.8335 4.66675H11.8335" stroke="#1F2937" stroke-width="1.25" stroke-linecap="round"/>
<path d="M5.1665 4.66675H5.83317" stroke="#1F2937" stroke-width="1.25" stroke-linecap="round"/>
<path d="M5.1665 8H5.83317" stroke="#1F2937" stroke-width="1.25" stroke-linecap="round"/>
<path d="M5.1665 11.3333H5.83317" stroke="#1F2937" stroke-width="1.25" stroke-linecap="round"/>
<path d="M7.8335 8H11.8335" stroke="#1F2937" stroke-width="1.25" stroke-linecap="round"/>
<path d="M7.8335 11.3333H11.8335" stroke="#1F2937" stroke-width="1.25" stroke-linecap="round"/>
</svg>
