<svg width="17" height="16" viewBox="0 0 17 16" fill="none" xmlns="http://www.w3.org/2000/svg">
<path d="M13.4333 12.9333L15.1667 14.6667M14.3 9.9C14.3 7.74607 12.5539 6 10.4 6C8.24607 6 6.5 7.74607 6.5 9.9C6.5 12.0539 8.24607 13.8 10.4 13.8C12.5539 13.8 14.3 12.0539 14.3 9.9Z" stroke="#1F2937" stroke-width="1.25" stroke-linecap="round" stroke-linejoin="round"/>
<path d="M13.2167 12.7167L15.1667 14.6667M9.1 9.9H10.4M10.4 9.9H11.7M10.4 9.9V8.6M10.4 9.9V11.2M14.3 9.9C14.3 7.74607 12.5539 6 10.4 6C8.24607 6 6.5 7.74607 6.5 9.9C6.5 12.0539 8.24607 13.8 10.4 13.8C12.5539 13.8 14.3 12.0539 14.3 9.9Z" stroke="#1F2937" stroke-width="1.25" stroke-linecap="round" stroke-linejoin="round"/>
<path d="M1.8335 3.99992C1.9205 3.10959 2.11763 2.51079 2.56433 2.06409C3.01103 1.61739 3.60983 1.42025 4.50016 1.33325M4.50016 14.6666C3.60983 14.5796 3.01103 14.3825 2.56433 13.9357C2.11763 13.4891 1.9205 12.8903 1.8335 11.9999M15.1668 3.99992C15.0798 3.10959 14.8827 2.51079 14.436 2.06409C13.9893 1.61739 13.3905 1.42025 12.5002 1.33325M1.8335 6.66658V9.33325M9.8335 1.33325H7.16683" stroke="#1F2937" stroke-width="1.25" stroke-linecap="round"/>
</svg>
