<svg width="32" height="32" viewBox="0 0 32 32" fill="none" xmlns="http://www.w3.org/2000/svg">
<path d="M10 0.5H22C27.2467 0.5 31.5 4.7533 31.5 10V22C31.5 27.2467 27.2467 31.5 22 31.5H10C4.7533 31.5 0.5 27.2467 0.5 22V10C0.5 4.7533 4.7533 0.5 10 0.5Z" fill="white"/>
<path d="M10 0.5H22C27.2467 0.5 31.5 4.7533 31.5 10V22C31.5 27.2467 27.2467 31.5 22 31.5H10C4.7533 31.5 0.5 27.2467 0.5 22V10C0.5 4.7533 4.7533 0.5 10 0.5Z" stroke="#E5E7EB" stroke-linecap="round"/>
<path d="M20 12L12 20M12 12L20 20" stroke="#1F2937" stroke-width="1.25" stroke-linecap="round" stroke-linejoin="round"/>
</svg>
