<svg width="17" height="16" viewBox="0 0 17 16" fill="none" xmlns="http://www.w3.org/2000/svg">
<path d="M10.6437 0.664062L11.0423 1.40925C11.3118 1.91304 11.4466 2.16494 11.3575 2.27282C11.2684 2.3807 10.9749 2.29357 10.388 2.11932C9.80115 1.9451 9.17815 1.85137 8.53255 1.85137C5.03475 1.85137 2.19922 4.60304 2.19922 7.99743C2.19922 9.11683 2.50763 10.1664 3.04651 11.0704M6.42144 15.3308L6.02279 14.5856C5.75327 14.0818 5.61851 13.8298 5.70762 13.722C5.79673 13.6141 6.09021 13.7012 6.67715 13.8755C7.26395 14.0497 7.88695 14.1434 8.53255 14.1434C12.0304 14.1434 14.8659 11.3918 14.8659 7.99743C14.8659 6.87796 14.5575 5.82838 14.0186 4.92438" stroke="#0F172A" stroke-width="1.25" stroke-linecap="round" stroke-linejoin="round"/>
</svg>
