<svg width="16" height="16" viewBox="0 0 16 16" fill="none" xmlns="http://www.w3.org/2000/svg">
<path d="M3.94694 3.94694C5.43858 2.45529 6.18441 1.70946 7.05681 1.46342C7.67334 1.28954 8.32601 1.28954 8.94254 1.46342C9.81494 1.70946 10.5607 2.45529 12.0524 3.94694C13.5441 5.43858 14.2899 6.18441 14.5359 7.05681C14.7098 7.67334 14.7098 8.32601 14.5359 8.94254C14.2899 9.81494 13.5441 10.5607 12.0524 12.0524C10.5607 13.5441 9.81494 14.2899 8.94254 14.5359C8.32601 14.7098 7.67334 14.7098 7.05681 14.5359C6.18441 14.2899 5.43858 13.5441 3.94694 12.0524C2.45529 10.5607 1.70946 9.81494 1.46342 8.94254C1.28954 8.32601 1.28954 7.67334 1.46342 7.05681C1.70946 6.18441 2.45529 5.43858 3.94694 3.94694Z" stroke="#1F2937" stroke-width="1.25" stroke-linejoin="round"/>
</svg>
