<svg width="24" height="24" viewBox="0 0 24 24" fill="none" xmlns="http://www.w3.org/2000/svg">
<g filter="url(#filter0_d_676_47816)">
<mask id="path-1-inside-1_676_47816" fill="white">
<path d="M4 7C4 4.79086 5.79086 3 8 3H16C18.2091 3 20 4.79086 20 7V15C20 17.2091 18.2091 19 16 19H8C5.79086 19 4 17.2091 4 15V7Z"/>
</mask>
<path d="M4 7C4 4.79086 5.79086 3 8 3H16C18.2091 3 20 4.79086 20 7V15C20 17.2091 18.2091 19 16 19H8C5.79086 19 4 17.2091 4 15V7Z" fill="white"/>
<path d="M8 3V4H16V3V2H8V3ZM20 7H19V15H20H21V7H20ZM16 19V18H8V19V20H16V19ZM4 15H5V7H4H3V15H4ZM8 19V18C6.34315 18 5 16.6569 5 15H4H3C3 17.7614 5.23858 20 8 20V19ZM20 15H19C19 16.6569 17.6569 18 16 18V19V20C18.7614 20 21 17.7614 21 15H20ZM16 3V4C17.6569 4 19 5.34315 19 7H20H21C21 4.23858 18.7614 2 16 2V3ZM8 3V2C5.23858 2 3 4.23858 3 7H4H5C5 5.34315 6.34315 4 8 4V3Z" fill="#E5E7EB" mask="url(#path-1-inside-1_676_47816)"/>
</g>
<defs>
<filter id="filter0_d_676_47816" x="0" y="0" width="24" height="24" filterUnits="userSpaceOnUse" color-interpolation-filters="sRGB">
<feFlood flood-opacity="0" result="BackgroundImageFix"/>
<feColorMatrix in="SourceAlpha" type="matrix" values="0 0 0 0 0 0 0 0 0 0 0 0 0 0 0 0 0 0 127 0" result="hardAlpha"/>
<feOffset dy="1"/>
<feGaussianBlur stdDeviation="2"/>
<feComposite in2="hardAlpha" operator="out"/>
<feColorMatrix type="matrix" values="0 0 0 0 0.0470588 0 0 0 0 0.0470588 0 0 0 0 0.0509804 0 0 0 0.05 0"/>
<feBlend mode="normal" in2="BackgroundImageFix" result="effect1_dropShadow_676_47816"/>
<feBlend mode="normal" in="SourceGraphic" in2="effect1_dropShadow_676_47816" result="shape"/>
</filter>
</defs>
</svg>
