<svg width="20" height="20" viewBox="0 0 20 20" fill="none" xmlns="http://www.w3.org/2000/svg">
<path d="M6.66602 14.1665H13.3327" stroke="#1F2937" stroke-width="1.6" stroke-linecap="round" stroke-linejoin="round"/>
<path d="M6.66602 10.8335H9.99935" stroke="#1F2937" stroke-width="1.6" stroke-linecap="round" stroke-linejoin="round"/>
<path d="M10.834 2.08317V2.49984C10.834 4.85686 10.834 6.03537 11.5662 6.7676C12.2985 7.49984 13.477 7.49984 15.834 7.49984H16.2507M16.6673 8.88059V11.6665C16.6673 14.8092 16.6673 16.3806 15.691 17.3568C14.7147 18.3332 13.1433 18.3332 10.0007 18.3332C6.85795 18.3332 5.28661 18.3332 4.31029 17.3568C3.33398 16.3806 3.33398 14.8092 3.33398 11.6665V7.8797C3.33398 5.17552 3.33398 3.82343 4.07238 2.90761C4.22155 2.7226 4.39008 2.55407 4.57509 2.4049C5.49091 1.6665 6.843 1.6665 9.54715 1.6665C10.1352 1.6665 10.4291 1.6665 10.6983 1.76151C10.7543 1.78127 10.8092 1.804 10.8627 1.82963C11.1203 1.9528 11.3282 2.16067 11.7439 2.5764L15.691 6.52353C16.1727 7.00525 16.4136 7.2461 16.5405 7.55239C16.6673 7.85867 16.6673 8.1993 16.6673 8.88059Z" stroke="#1F2937" stroke-width="1.6" stroke-linecap="round" stroke-linejoin="round"/>
</svg>
