<svg width="20" height="20" viewBox="0 0 20 20" fill="none" xmlns="http://www.w3.org/2000/svg">
<path d="M12.1158 1.66602V3.73787C12.1158 5.19449 12.1158 5.9228 12.2941 6.62197C12.4724 7.32115 12.8219 7.96313 13.5209 9.2471L14.4681 10.987C16.2494 14.2589 17.14 15.8949 16.4094 17.1077L16.398 17.1262C15.6567 18.3327 13.7707 18.3327 9.9987 18.3327C6.22667 18.3327 4.34066 18.3327 3.59936 17.1262L3.58807 17.1077C2.8574 15.8949 3.74801 14.2589 5.52925 10.987L6.47645 9.2471C7.17544 7.96313 7.52494 7.32115 7.70326 6.62197C7.88159 5.9228 7.88159 5.19449 7.88159 3.73787V1.66602" stroke="#141B34" stroke-width="1.5"/>
<path d="M7.5 13.334L7.50723 13.332" stroke="#141B34" stroke-width="2" stroke-linecap="round" stroke-linejoin="round"/>
<path d="M12.5 15.002L12.5073 15" stroke="#141B34" stroke-width="2" stroke-linecap="round" stroke-linejoin="round"/>
<path d="M6.66797 1.66602H13.3346" stroke="#141B34" stroke-width="1.5" stroke-linecap="round" stroke-linejoin="round"/>
<path d="M6.25 9.62954C7.08333 8.66838 8.41617 9.36121 10 10.2645C12.0833 11.4525 13.3333 10.541 13.75 9.67863" stroke="#141B34" stroke-width="1.5" stroke-linecap="round"/>
</svg>
