<svg width="20" height="20" viewBox="0 0 20 20" fill="none" xmlns="http://www.w3.org/2000/svg">
<path d="M16.827 10.8328C18.2078 13.2243 17.3884 16.2822 14.9969 17.663C12.6054 19.0437 9.54752 18.2243 8.1668 15.8328M16.827 10.8328C15.4463 8.44141 12.3884 7.62203 9.99693 9.00274C7.60547 10.3835 6.78609 13.4414 8.1668 15.8328M16.827 10.8328L8.1668 15.8328" stroke="#141B34" stroke-width="1.5"/>
<path d="M8.369 4.61771L12.6065 2.11385C14.1667 1.19195 16.1617 1.73904 17.0624 3.33581C17.7861 4.61864 17.5833 6.18868 16.6667 7.23452M8.369 4.61771L4.13154 7.12157C2.57136 8.04346 2.03679 10.0853 2.93757 11.682C3.47916 12.6421 4.4163 13.2227 5.41667 13.3327M8.369 4.61771L9.58333 6.66601" stroke="#141B34" stroke-width="1.5" stroke-linecap="round" stroke-linejoin="round"/>
</svg>
