<svg width="17" height="16" viewBox="0 0 17 16" fill="none" xmlns="http://www.w3.org/2000/svg">
<path d="M11.4501 3.07006L12.1101 2.41007C12.6569 1.86331 13.5434 1.86331 14.0901 2.41007C14.6368 2.95683 14.6368 3.84329 14.0901 4.39005L13.4301 5.05004M11.4501 3.07006L7.01055 7.5096C6.67221 7.848 6.43219 8.27187 6.31614 8.73607L5.8335 10.6667L7.7641 10.184C8.2283 10.068 8.65216 9.82793 8.99056 9.4896L13.4301 5.05004M11.4501 3.07006L13.4301 5.05004" stroke="#1F2937" stroke-width="1.25" stroke-linejoin="round"/>
<path d="M13.1666 8.99992C13.1666 11.1916 13.1666 12.2874 12.5613 13.025C12.4505 13.16 12.3267 13.2838 12.1917 13.3946C11.4541 13.9999 10.3583 13.9999 8.1666 13.9999H7.83333C5.31917 13.9999 4.06211 13.9999 3.28106 13.2189C2.50002 12.4379 2.5 11.1807 2.5 8.66658V8.33325C2.5 6.1416 2.5 5.04578 3.10529 4.30821C3.21611 4.17319 3.33993 4.04937 3.47496 3.93855C4.21253 3.33325 5.30835 3.33325 7.5 3.33325" stroke="#1F2937" stroke-width="1.25" stroke-linecap="round" stroke-linejoin="round"/>
</svg>
