<svg width="120" height="121" viewBox="0 0 120 121" fill="none" xmlns="http://www.w3.org/2000/svg">
<path d="M73.5563 74.037C72.9469 76.0152 71.8406 77.4683 70.2281 78.387C69.8812 78.5839 69.5156 78.7527 69.15 78.8839C66.75 79.7558 63.9468 79.2496 60.7125 77.3933C56.9812 75.2371 53.8125 71.9089 51.1968 67.3996C51.1125 67.2589 51.0281 67.1089 50.9531 66.9683C48.4968 62.6183 47.2781 58.3621 47.2781 54.2277C47.2781 50.0933 48.5812 47.0558 51.1968 45.5652C53.025 44.5246 55.1251 44.3746 57.4969 45.1246C58.5188 45.4339 59.5875 45.9214 60.7125 46.5683C63.15 47.9746 65.3437 49.8777 67.3031 52.2871C68.3437 53.5714 69.3187 54.9872 70.228 56.5528C71.3437 58.4747 72.2157 60.3777 72.8532 62.2621C73.7063 64.7933 74.1376 67.2777 74.1376 69.7339C74.1376 71.3746 73.9407 72.8089 73.5563 74.037Z" fill="#E6F1FF"/>
<path d="M38.6906 44.4778C38.4468 45.8747 38.3249 47.4028 38.3249 49.0528C38.3249 49.9997 38.3624 50.9465 38.4468 51.9028L31.1624 55.5402L28.0875 57.0777C28.8563 56.6371 29.2781 55.8027 29.3531 54.5839C29.3718 54.4527 29.3719 54.312 29.3719 54.162C29.3719 52.6995 28.9407 51.237 28.0875 49.7558C27.225 48.2745 26.1656 47.1683 24.8906 46.437L11.4656 38.6839C10.3219 38.0277 9.34688 37.8589 8.53125 38.187L23.9436 30.4808L24.8905 31.0245C25.1905 31.1933 25.4718 31.3339 25.753 31.437C26.653 31.7839 27.4219 31.7652 28.0875 31.3902L31.1624 29.8527L42.5343 36.4247C40.5374 38.3559 39.2531 41.0465 38.6906 44.4778Z" fill="#E6F1FF"/>
<path d="M101.841 65.5246C101.841 68.0089 101.531 70.2871 100.894 72.3589C100.256 74.4402 99.3094 76.1371 98.0436 77.4589L90.4593 81.2558H90.4499L79.2937 86.834C80.5593 85.5122 81.5062 83.8153 82.1437 81.734C82.3312 81.1247 82.4906 80.4872 82.6124 79.8403C82.9406 78.2934 83.0905 76.6528 83.0905 74.8997C83.0905 73.1465 82.9499 71.2809 82.6687 69.4528C81.8437 64.0715 79.8093 58.5684 76.5468 52.9528C73.6406 47.9372 70.3312 43.7934 66.6093 40.5403C64.753 38.909 62.7843 37.4934 60.7124 36.2934C59.6156 35.6559 58.5468 35.1215 57.5062 34.6809C53.1843 32.8434 49.3687 32.6372 46.0406 34.0715L48.2249 32.9839L64.1249 25.0152C68.3905 22.8402 73.4999 23.4777 79.4624 26.9183C85.6499 30.4902 90.928 36.0402 95.2968 43.5777C99.6656 51.1058 101.841 58.4183 101.841 65.5246Z" fill="#E6F1FF"/>
<path d="M113.372 106.09C113.372 107.543 112.959 108.509 112.144 108.977L93.3937 118.352C94.2093 117.884 94.6218 116.918 94.6218 115.465C94.6218 114.012 94.2093 112.568 93.3937 111.152L79.2937 86.834L90.4499 81.2558H90.4593L98.0436 77.4589L112.144 101.777C112.959 103.193 113.372 104.637 113.372 106.09Z" fill="#CCE4FF"/>
<path d="M51.7594 92.7685C51.7594 91.3153 51.3282 89.8435 50.4657 88.3622C49.6125 86.8903 48.5437 85.7841 47.2781 85.0435L11.4656 64.3716C10.3219 63.7153 9.34688 63.5466 8.53125 63.8747L23.9437 56.1683L24.8906 56.7121C25.1906 56.8808 25.4718 57.0214 25.7531 57.1245C26.6531 57.4714 27.4219 57.4527 28.0875 57.0777L31.1624 55.5402L40.2562 60.7903C41.3249 64.1465 42.8624 67.559 44.8687 71.009C45.7499 72.5278 46.6593 73.9622 47.6156 75.3122C51.3937 80.6934 55.7624 84.809 60.7124 87.6684C61.6781 88.2309 62.6437 88.709 63.6093 89.1122L50.4657 95.6836C51.3282 95.1961 51.7594 94.2216 51.7594 92.7685Z" fill="#E6F1FF"/>
<path d="M48.1219 19.0996C48.1219 20.5527 47.6906 21.5277 46.8375 22.0152L31.1624 29.8527L28.0875 31.3902C28.8562 30.9495 29.2781 30.1152 29.3531 28.8965C29.3718 28.7652 29.3719 28.6246 29.3719 28.4746C29.3719 27.0121 28.9407 25.5496 28.0875 24.0684C27.225 22.5871 26.1656 21.4809 24.8906 20.7496L11.4656 12.9965C10.3219 12.3402 9.34688 12.1715 8.53125 12.4996L27.0187 3.25588C27.8812 2.76838 28.9405 2.89025 30.2155 3.6215L43.6405 11.3746C44.9155 12.1058 45.975 13.2121 46.8375 14.6933C47.6906 16.1746 48.1219 17.6371 48.1219 19.0996Z" fill="#E6F1FF"/>
<path d="M46.0406 34.0715L46.0031 34.0903L44.8687 34.6622C43.9968 35.159 43.2187 35.7497 42.5343 36.4247" fill="#E6F1FF"/>
<path d="M50.4657 95.6836C51.3282 95.1961 51.7594 94.2216 51.7594 92.7685C51.7594 91.3153 51.3282 89.8435 50.4657 88.3622C49.6126 86.8903 48.5437 85.7841 47.2781 85.0435L11.4656 64.3716C10.3219 63.7153 9.34688 63.5466 8.53125 63.8747M50.4657 95.6836C49.6126 96.1711 48.5437 96.0586 47.2781 95.318L11.4656 74.6466C10.1906 73.9153 9.13125 72.8091 8.26875 71.3278C7.41563 69.8466 6.98438 68.3747 6.98438 66.9216C6.98438 65.4685 7.41563 64.4935 8.26875 64.006L8.53125 63.8747M50.4657 95.6836L63.6093 89.1122M8.53125 63.8747L23.9437 56.1683M28.0875 57.0777C28.8563 56.637 29.2781 55.8027 29.3531 54.5839C29.3718 54.4527 29.3719 54.312 29.3719 54.162C29.3719 52.6995 28.9407 51.237 28.0875 49.7558C27.225 48.2745 26.1656 47.1683 24.8906 46.437L11.4656 38.6839C10.3219 38.0277 9.34688 37.8589 8.53125 38.187M28.0875 57.0777C27.4219 57.4527 26.6531 57.4714 25.7531 57.1245C25.4718 57.0214 25.1906 56.8808 24.8906 56.7121L23.9437 56.1683M28.0875 57.0777L31.1624 55.5402M23.9437 56.1683L11.4656 48.9589C10.1906 48.2277 9.13125 47.1214 8.26875 45.6402C7.41563 44.1589 6.98438 42.687 6.98438 41.2339C6.98438 39.7808 7.41563 38.8058 8.26875 38.3183L8.53125 38.187M8.53125 38.187L23.9436 30.4808M79.2937 86.834L93.3937 111.152C94.2093 112.568 94.6218 114.012 94.6218 115.465C94.6218 116.918 94.2093 117.884 93.3937 118.352M79.2937 86.834C80.5593 85.5122 81.5062 83.8153 82.1437 81.734C82.3312 81.1247 82.4906 80.4872 82.6124 79.8403C82.9406 78.2934 83.0905 76.6528 83.0905 74.8997C83.0905 73.1465 82.9499 71.2809 82.6687 69.4528C81.8437 64.0715 79.8093 58.5684 76.5468 52.9528C73.6406 47.9372 70.3312 43.7934 66.6093 40.5403C64.753 38.909 62.7843 37.4934 60.7124 36.2934C59.6156 35.6559 58.5468 35.1215 57.5062 34.6809C53.1843 32.8434 49.3687 32.6372 46.0406 34.0715M79.2937 86.834L90.4499 81.2558H90.4593L98.0436 77.4589M46.0406 34.0715L46.0031 34.0903L44.8687 34.6622C43.9968 35.159 43.2187 35.7497 42.5343 36.4247M46.0406 34.0715L48.2249 32.9839L64.1249 25.0152C68.3905 22.8402 73.4999 23.4777 79.4624 26.9183C85.6499 30.4902 90.928 36.0402 95.2968 43.5777C99.6656 51.1058 101.841 58.4183 101.841 65.5246C101.841 68.0089 101.531 70.2871 100.894 72.3589C100.256 74.4402 99.3094 76.1371 98.0436 77.4589M42.5343 36.4247C40.5374 38.3559 39.2531 41.0465 38.6906 44.4778C38.4468 45.8747 38.3249 47.4028 38.3249 49.0528C38.3249 49.9997 38.3624 50.9465 38.4468 51.9028M42.5343 36.4247L31.1624 29.8527M38.4468 51.9028C38.6812 54.8278 39.2812 57.7903 40.2562 60.7903M38.4468 51.9028L31.1624 55.5402M40.2562 60.7903C41.3249 64.1465 42.8624 67.559 44.8687 71.009C45.7499 72.5278 46.6593 73.9622 47.6156 75.3122C51.3937 80.6934 55.7624 84.809 60.7124 87.6684C61.6781 88.2309 62.6437 88.709 63.6093 89.1122M40.2562 60.7903L31.1624 55.5402M63.6093 89.1122C64.7905 89.6184 65.9718 90.0122 67.1437 90.284C69.2718 90.7903 71.2312 90.8278 73.0218 90.4059L87.1218 114.734C87.9468 116.149 88.9874 117.218 90.2624 117.949C91.5281 118.68 92.5687 118.821 93.3937 118.352M93.3937 118.352L112.144 108.977C112.959 108.509 113.372 107.543 113.372 106.09C113.372 104.637 112.959 103.193 112.144 101.777L98.0436 77.4589M23.9436 30.4808L24.8905 31.0245C25.1905 31.1933 25.4718 31.3339 25.753 31.437C26.653 31.7839 27.4219 31.7652 28.0875 31.3902M23.9436 30.4808L11.4656 23.2715C10.1906 22.5402 9.13125 21.434 8.26875 19.9527C7.41563 18.4715 6.98438 16.9996 6.98438 15.5465C6.98438 14.0934 7.41563 13.1184 8.26875 12.6309L8.53125 12.4996M28.0875 31.3902L31.1624 29.8527M28.0875 31.3902C28.8562 30.9495 29.2781 30.1152 29.3531 28.8965C29.3718 28.7652 29.3719 28.6246 29.3719 28.4746C29.3719 27.0121 28.9407 25.5496 28.0875 24.0684C27.225 22.5871 26.1656 21.4809 24.8906 20.7496L11.4656 12.9965C10.3219 12.3402 9.34688 12.1715 8.53125 12.4996M31.1624 29.8527L46.8375 22.0152C47.6906 21.5277 48.1219 20.5527 48.1219 19.0996C48.1219 17.6371 47.6906 16.1746 46.8375 14.6933C45.975 13.2121 44.9155 12.1058 43.6405 11.3746L30.2155 3.6215C28.9405 2.89025 27.8812 2.76838 27.0187 3.25588L8.53125 12.4996M74.1376 69.7339C74.1376 71.3746 73.9407 72.8089 73.5563 74.037C72.9469 76.0152 71.8406 77.4683 70.2281 78.387C69.8812 78.5839 69.5156 78.7527 69.15 78.8839C66.75 79.7558 63.9468 79.2496 60.7125 77.3933C56.9812 75.2371 53.8125 71.9089 51.1968 67.3996C51.1125 67.2589 51.0281 67.1089 50.9531 66.9683C48.4968 62.6183 47.2781 58.3621 47.2781 54.2277C47.2781 50.0933 48.5812 47.0558 51.1968 45.5652C53.025 44.5246 55.1251 44.3746 57.4969 45.1246C58.5188 45.4339 59.5875 45.9214 60.7125 46.5683C63.15 47.9746 65.3437 49.8777 67.3031 52.2871C68.3437 53.5714 69.3187 54.9872 70.228 56.5528C71.3437 58.4747 72.2157 60.3777 72.8532 62.2621C73.7063 64.7933 74.1376 67.2777 74.1376 69.7339Z" stroke="#2582FF" stroke-linecap="round" stroke-linejoin="round"/>
</svg>
