<svg width="24" height="23" viewBox="0 0 24 23" fill="none" xmlns="http://www.w3.org/2000/svg">
<g filter="url(#filter0_d_126_23555)">
<mask id="path-1-inside-1_126_23555" fill="white">
<path d="M4 6.2C4 4.43269 5.43269 3 7.2 3H16.8C18.5673 3 20 4.43269 20 6.2V15.8C20 17.5673 18.5673 19 16.8 19H7.2C5.43269 19 4 17.5673 4 15.8V6.2Z"/>
</mask>
<path d="M4 6.2C4 4.43269 5.43269 3 7.2 3H16.8C18.5673 3 20 4.43269 20 6.2V15.8C20 17.5673 18.5673 19 16.8 19H7.2C5.43269 19 4 17.5673 4 15.8V6.2Z" fill="white"/>
<path d="M7.2 3V3.8H16.8V3V2.2H7.2V3ZM20 6.2H19.2V15.8H20H20.8V6.2H20ZM16.8 19V18.2H7.2V19V19.8H16.8V19ZM4 15.8H4.8V6.2H4H3.2V15.8H4ZM7.2 19V18.2C5.87452 18.2 4.8 17.1255 4.8 15.8H4H3.2C3.2 18.0091 4.99086 19.8 7.2 19.8V19ZM20 15.8H19.2C19.2 17.1255 18.1255 18.2 16.8 18.2V19V19.8C19.0091 19.8 20.8 18.0091 20.8 15.8H20ZM16.8 3V3.8C18.1255 3.8 19.2 4.87452 19.2 6.2H20H20.8C20.8 3.99086 19.0091 2.2 16.8 2.2V3ZM7.2 3V2.2C4.99086 2.2 3.2 3.99086 3.2 6.2H4H4.8C4.8 4.87452 5.87452 3.8 7.2 3.8V3Z" fill="#E5E7EB" mask="url(#path-1-inside-1_126_23555)"/>
</g>
<defs>
<filter id="filter0_d_126_23555" x="0.8" y="0.6" width="22.4" height="22.4" filterUnits="userSpaceOnUse" color-interpolation-filters="sRGB">
<feFlood flood-opacity="0" result="BackgroundImageFix"/>
<feColorMatrix in="SourceAlpha" type="matrix" values="0 0 0 0 0 0 0 0 0 0 0 0 0 0 0 0 0 0 127 0" result="hardAlpha"/>
<feOffset dy="0.8"/>
<feGaussianBlur stdDeviation="1.6"/>
<feComposite in2="hardAlpha" operator="out"/>
<feColorMatrix type="matrix" values="0 0 0 0 0.0470588 0 0 0 0 0.0470588 0 0 0 0 0.0509804 0 0 0 0.05 0"/>
<feBlend mode="normal" in2="BackgroundImageFix" result="effect1_dropShadow_126_23555"/>
<feBlend mode="normal" in="SourceGraphic" in2="effect1_dropShadow_126_23555" result="shape"/>
</filter>
</defs>
</svg>
