<svg width="119" height="132" viewBox="0 0 119 132" fill="none" xmlns="http://www.w3.org/2000/svg">
<path fill-rule="evenodd" clip-rule="evenodd" d="M58.9422 131.052C56.7122 131.052 54.1722 130.542 51.6222 129.002C46.8522 126.112 9.4522 103.932 6.8522 102.392C5.4222 101.682 0.622186 98.6318 0.712186 89.8218L1.25219 38.0418C1.28219 37.7118 2.0822 29.9618 9.8222 25.9318C16.096 22.6684 45.3418 6.13329 51.165 2.84092L51.1715 2.83728C51.7859 2.4899 52.1378 2.29094 52.1722 2.27181L52.2922 2.21181C52.6122 2.04181 55.5422 0.571809 59.5322 0.281809C63.0522 0.0218089 66.2922 0.741809 69.1722 2.40181C76.7322 6.48181 109.502 25.9018 110.902 26.7318C111.142 26.8618 118.802 31.2318 118.712 40.0518L118.192 90.5418C118.162 91.4318 117.802 98.7218 112.492 102.592L112.312 102.712C107.972 105.492 68.0322 128.242 66.3322 129.202C66.1522 129.312 63.0722 131.052 58.9422 131.052ZM9.28219 96.0418L9.6322 96.1418L9.68219 96.2518C9.75619 96.2962 11.1772 97.1394 13.4757 98.5032L13.5052 98.5207C23.6548 104.543 50.7655 120.629 54.8122 123.072C58.3499 125.212 61.9736 123.351 62.2858 123.19L62.3022 123.182C62.3331 123.164 62.6035 123.01 63.0786 122.739L63.0788 122.739C68.758 119.502 103.667 99.6017 108.032 96.8518C110.092 95.2818 110.672 91.7218 110.722 90.4718L111.238 40.2838C110.872 37.0461 109.562 35.8244 108.85 35.1602C108.756 35.0721 108.672 34.9938 108.602 34.9218C105.832 32.0018 103.242 33.1918 103.242 33.1918L102.062 33.6718C102.062 33.6718 57.9422 58.5118 55.4422 59.9319C53.1222 61.4018 52.9622 63.8319 52.9622 63.8319C52.9622 63.8319 52.5922 104.212 52.5822 104.842C52.5722 105.472 51.9522 105.062 51.9522 105.062L43.4622 100.002C43.4622 100.002 43.8722 60.5219 43.8922 58.4519C43.9122 56.3819 45.0522 55.3419 45.0522 55.3419L46.4122 54.5419C46.4122 54.5419 89.0322 30.4918 91.9822 28.7618C94.1322 26.3918 91.8422 24.6018 91.8422 24.6018C91.8422 24.6018 85.4122 19.9418 83.7622 19.8218C81.0122 19.6218 80.0222 20.6119 80.0222 20.6119C80.0222 20.6119 35.8422 45.3419 33.4822 46.5819C31.1222 47.8218 30.6922 50.1218 30.6922 50.1218L30.3022 92.6219L21.3522 87.2919C21.3522 87.2919 21.6222 46.9418 21.6422 44.8218C21.6622 42.7019 23.2522 41.9019 23.2522 41.9019C23.2522 41.9019 66.4522 17.5319 69.7322 15.6419C72.1822 13.6119 69.5922 11.4418 69.5922 11.4418L64.3722 8.37185C64.3722 8.37185 62.6022 7.50185 62.1822 7.53185L62.2416 7.34267C61.3938 7.18804 60.5022 7.14442 59.5722 7.21181C57.2222 7.38181 55.3922 8.21181 55.1222 8.34181L54.8678 8.48582C51.0059 10.6719 19.2652 28.639 12.4722 32.1718C8.6022 34.1818 7.8422 37.8018 7.7222 38.5218L7.1922 89.9918C7.1422 94.4018 8.9022 95.7918 9.2922 96.0418H9.28219ZM97.0423 51.7519C95.7422 52.4219 67.5322 68.5219 67.5322 68.5219V68.5319C67.5322 68.5319 66.0822 69.1819 66.0622 71.3419L65.7122 105.172C65.7122 105.172 65.4422 106.052 66.9122 105.182C68.3822 104.312 96.5123 88.4819 96.5123 88.4819C96.5123 88.4819 97.8522 87.2719 97.6522 85.2219C97.6822 82.8419 98.0222 51.7719 98.0222 51.7719C98.0222 51.7719 98.0322 50.9919 97.0423 51.7519ZM74.6222 85.9419L74.7122 77.0619C74.7222 75.9419 75.6322 75.1319 75.6322 75.1319C75.6322 75.1319 83.5922 70.6019 85.3022 69.6519C87.0522 68.9419 87.7122 70.7119 87.7122 70.7119V71.0819L87.6222 79.7219C87.6122 81.5319 86.5222 82.0519 86.5222 82.0519C86.5222 82.0519 78.7223 86.4919 76.9223 87.4419C74.8023 88.0619 74.6222 85.9419 74.6222 85.9419Z" fill="#004AAD"/>
</svg>
