<svg width="16" height="16" viewBox="0 0 16 16" fill="none" xmlns="http://www.w3.org/2000/svg">
<path d="M7.40533 3.71733C7.57979 4.01788 7.66699 4.16816 7.66699 4.33317C7.66699 4.49818 7.57979 4.64846 7.40533 4.94901L6.57235 6.384C6.3979 6.68457 6.31067 6.83484 6.16699 6.9173C6.02332 6.99984 5.84886 6.99984 5.49995 6.99984H3.83404C3.48513 6.99984 3.31067 6.99984 3.16699 6.9173C3.02332 6.83484 2.93609 6.68457 2.76163 6.384L1.92868 4.94901C1.75422 4.64846 1.66699 4.49818 1.66699 4.33317C1.66699 4.16816 1.75422 4.01788 1.92868 3.71733L2.76163 2.28234C2.93609 1.98179 3.02332 1.83152 3.16699 1.74901C3.31067 1.6665 3.48513 1.6665 3.83404 1.6665H5.49995C5.84886 1.6665 6.02332 1.6665 6.16699 1.74901C6.31067 1.83152 6.3979 1.98179 6.57235 2.28234L7.40533 3.71733Z" stroke="#0F172A" stroke-width="1.25" stroke-linecap="round" stroke-linejoin="round"/>
<path d="M14.0713 7.7173C14.2458 8.0179 14.333 8.16817 14.333 8.33317C14.333 8.49817 14.2458 8.64844 14.0713 8.94904L13.2383 10.384C13.0639 10.6846 12.9767 10.8348 12.833 10.9173C12.6893 10.9998 12.5149 10.9998 12.1659 10.9998H10.5001C10.1511 10.9998 9.97667 10.9998 9.83301 10.9173C9.68934 10.8348 9.60207 10.6846 9.42767 10.384L8.59467 8.94904C8.42021 8.64844 8.33301 8.49817 8.33301 8.33317C8.33301 8.16817 8.42021 8.0179 8.59467 7.7173L9.42767 6.28234C9.60207 5.98179 9.68934 5.83152 9.83301 5.74901C9.97667 5.6665 10.1511 5.6665 10.5001 5.6665H12.1659C12.5149 5.6665 12.6893 5.6665 12.833 5.74901C12.9767 5.83152 13.0639 5.98179 13.2383 6.28234L14.0713 7.7173Z" stroke="#0F172A" stroke-width="1.25" stroke-linecap="round" stroke-linejoin="round"/>
<path d="M7.40533 11.0508C7.57979 11.3514 7.66699 11.5017 7.66699 11.6667C7.66699 11.8317 7.57979 11.9819 7.40533 12.2825L6.57235 13.7175C6.3979 14.0181 6.31067 14.1683 6.16699 14.2508C6.02332 14.3333 5.84886 14.3333 5.49995 14.3333H3.83404C3.48513 14.3333 3.31067 14.3333 3.16699 14.2508C3.02332 14.1683 2.93609 14.0181 2.76163 13.7175L1.92868 12.2825C1.75422 11.9819 1.66699 11.8317 1.66699 11.6667C1.66699 11.5017 1.75422 11.3514 1.92868 11.0508L2.76163 9.61587C2.93609 9.31527 3.02332 9.165 3.16699 9.08253C3.31067 9 3.48513 9 3.83404 9H5.49995C5.84886 9 6.02332 9 6.16699 9.08253C6.31067 9.165 6.3979 9.31527 6.57235 9.61587L7.40533 11.0508Z" stroke="#1F2937" stroke-width="1.25" stroke-linecap="round" stroke-linejoin="round"/>
</svg>
